<svg xmlns="http://www.w3.org/2000/svg" viewBox="0 0 24 24" width="24" height="24" role="img" aria-hidden="true">
  <path fill="#94a3b8" d="M12 0C8.74 0 8.333.015 7.053.072 5.775.132 4.905.333 4.14.63c-.789.306-1.459.717-2.126 1.384S.935 3.35.63 4.14C.333 4.905.131 5.775.072 7.053.012 8.333 0 8.74 0 12s.015 3.667.072 4.947c.06 1.277.261 2.148.558 2.913.306.788.717 1.459 1.384 2.126.667.666 1.336 1.079 2.126 1.384.766.296 1.636.499 2.913.558C8.333 23.988 8.74 24 12 24s3.667-.015 4.947-.072c1.277-.06 2.148-.262 2.913-.558.788-.306 1.459-.718 2.126-1.384.666-.667 1.079-1.335 1.384-2.126.296-.765.499-1.636.558-2.913.06-1.28.072-1.687.072-4.947s-.015-3.667-.072-4.947c-.06-1.277-.262-2.149-.558-2.913-.306-.789-.718-1.459-1.384-2.126C21.319 1.347 20.651.935 19.86.63c-.765-.297-1.636-.499-2.913-.558C15.667.012 15.26 0 12 0zm0 2.2c3.207 0 3.595.016 4.847.075 1.17.056 1.805.249 2.23.415.562.217.96.477 1.382.896.419.421.679.819.896 1.381.164.426.359 1.061.413 2.227.06 1.251.076 1.639.076 4.847s-.016 3.596-.076 4.847c-.056 1.17-.251 1.805-.418 2.23-.217.562-.477.96-.896 1.382-.421.418-.82.679-1.382.896-.424.164-1.061.359-2.227.413-1.25.06-1.639.076-4.847.076s-3.597-.016-4.847-.076c-1.17-.056-1.806-.251-2.23-.418-.563-.217-.961-.477-1.382-.896-.419-.421-.68-.82-.896-1.382-.164-.424-.359-1.061-.413-2.227C2.218 15.597 2.2 15.209 2.2 12s.016-3.597.076-4.847c.056-1.17.249-1.806.413-2.23.217-.563.477-.961.896-1.382.421-.419.819-.679 1.382-.896.424-.164 1.061-.359 2.227-.413 1.252-.06 1.639-.076 4.847-.076M12 5.838a6.162 6.162 0 1 0 0 12.324 6.162 6.162 0 0 0 0-12.324zM12 16a4 4 0 1 1 0-8 4 4 0 0 1 0 8zm7.406-11.845a1.44 1.44 0 1 1-2.881 0 1.44 1.44 0 0 1 2.881 0z"/>
</svg>
